<svg width="296" height="641" viewBox="0 0 296 641" fill="none" xmlns="http://www.w3.org/2000/svg">
<path d="M16.5137 26.723C15.6726 26.723 14.9568 26.4958 14.3663 26.0412C13.7758 25.5824 13.4125 24.9749 13.2766 24.2187H14.9143C15.0205 24.5671 15.2159 24.8432 15.5005 25.0471C15.7894 25.2468 16.1314 25.3466 16.5265 25.3466C17.1977 25.3466 17.7223 25.0514 18.1004 24.4609C18.4785 23.8661 18.6676 23.042 18.6676 21.9884H18.6102H18.5784H18.5592C18.3426 22.426 18.0261 22.7658 17.6098 23.008C17.1934 23.2459 16.7155 23.3648 16.176 23.3648C15.3009 23.3648 14.5765 23.0759 14.003 22.4982C13.4338 21.9204 13.1491 21.1897 13.1491 20.3061C13.1491 19.363 13.4678 18.5898 14.105 17.9866C14.7465 17.3791 15.5664 17.0753 16.5647 17.0753C17.2359 17.0753 17.8307 17.2304 18.349 17.5405C18.8672 17.8506 19.2814 18.301 19.5916 18.8915C20.0249 19.6604 20.2415 20.629 20.2415 21.7972C20.2415 23.3436 19.9123 24.5522 19.2538 25.4231C18.5954 26.2897 17.682 26.723 16.5137 26.723ZM15.2711 21.5551C15.611 21.8907 16.0443 22.0585 16.5711 22.0585C17.0979 22.0585 17.5333 21.8907 17.8774 21.5551C18.2215 21.2195 18.3936 20.7947 18.3936 20.2806C18.3936 19.7623 18.2194 19.3269 17.871 18.9743C17.5227 18.6217 17.0915 18.4454 16.5775 18.4454C16.0634 18.4454 15.6322 18.6196 15.2839 18.9679C14.9355 19.312 14.7613 19.7411 14.7613 20.2551C14.7613 20.7819 14.9313 21.2152 15.2711 21.5551ZM22.7444 25.525C22.447 25.525 22.2027 25.4295 22.0115 25.2383C21.8204 25.0471 21.7248 24.8071 21.7248 24.5182C21.7248 24.2251 21.8204 23.9851 22.0115 23.7981C22.2027 23.607 22.447 23.5114 22.7444 23.5114C23.046 23.5114 23.2903 23.607 23.4772 23.7981C23.6683 23.9851 23.7639 24.2251 23.7639 24.5182C23.7639 24.8071 23.6683 25.0471 23.4772 25.2383C23.2903 25.4295 23.046 25.525 22.7444 25.525ZM22.7444 20.7458C22.447 20.7458 22.2027 20.6523 22.0115 20.4654C21.8204 20.2742 21.7248 20.0342 21.7248 19.7453C21.7248 19.4522 21.8204 19.2122 22.0115 19.0253C22.2027 18.8341 22.447 18.7385 22.7444 18.7385C23.046 18.7385 23.2903 18.8341 23.4772 19.0253C23.6683 19.2122 23.7639 19.4522 23.7639 19.7453C23.7639 20.0342 23.6683 20.2742 23.4772 20.4654C23.2903 20.6523 23.046 20.7458 22.7444 20.7458ZM29.7333 26.5V24.7858H25.2408V23.3202C25.9885 21.9438 27.2375 19.9386 28.9877 17.3047H31.3073V23.3967H32.5499V24.7858H31.3073V26.5H29.7333ZM26.7638 23.3393V23.4349H29.7588V18.6429H29.6696C28.6755 20.1128 27.7069 21.6783 26.7638 23.3393ZM35.9321 26.5V18.9615H35.8237L33.5361 20.5674V18.987L35.9384 17.3047H37.5761V26.5H35.9321Z" fill="white"/>
<path fill-rule="evenodd" clip-rule="evenodd" d="M238.043 17.8939H237.147C236.653 17.8939 236.252 18.2806 236.252 18.7576V26.2424C236.252 26.7194 236.653 27.106 237.147 27.106H238.043C238.537 27.106 238.938 26.7194 238.938 26.2424V18.7576C238.938 18.2806 238.537 17.8939 238.043 17.8939ZM232.932 19.9092H233.828C234.323 19.9092 234.724 20.2958 234.724 20.7728V26.2425C234.724 26.7195 234.323 27.1061 233.828 27.1061H232.932C232.438 27.1061 232.037 26.7195 232.037 26.2425V20.7728C232.037 20.2958 232.438 19.9092 232.932 19.9092ZM229.613 21.9242H228.718C228.223 21.9242 227.822 22.3108 227.822 22.7878V26.2424C227.822 26.7193 228.223 27.106 228.718 27.106H229.613C230.108 27.106 230.509 26.7193 230.509 26.2424V22.7878C230.509 22.3108 230.108 21.9242 229.613 21.9242ZM225.399 23.6514H224.503C224.008 23.6514 223.607 24.0381 223.607 24.515V26.2423C223.607 26.7193 224.008 27.1059 224.503 27.1059H225.399C225.893 27.1059 226.294 26.7193 226.294 26.2423V24.515C226.294 24.0381 225.893 23.6514 225.399 23.6514Z" fill="white"/>
<path fill-rule="evenodd" clip-rule="evenodd" d="M250.838 19.6949C252.732 19.695 254.553 20.4401 255.925 21.7762C256.028 21.8793 256.194 21.878 256.295 21.7733L257.283 20.7523C257.335 20.6992 257.363 20.6272 257.363 20.5523C257.363 20.4774 257.333 20.4058 257.281 20.3533C253.679 16.8183 247.997 16.8183 244.395 20.3533C244.343 20.4057 244.313 20.4774 244.313 20.5522C244.312 20.6271 244.341 20.6991 244.392 20.7523L245.38 21.7733C245.482 21.8782 245.647 21.8795 245.751 21.7762C247.123 20.44 248.944 19.6949 250.838 19.6949ZM250.838 23.0164C251.879 23.0163 252.882 23.4123 253.653 24.1275C253.757 24.229 253.922 24.2268 254.023 24.1225L255.01 23.1016C255.062 23.048 255.091 22.9754 255.09 22.8999C255.089 22.8244 255.059 22.7524 255.006 22.6999C252.658 20.4628 249.021 20.4628 246.673 22.6999C246.62 22.7524 246.589 22.8244 246.589 22.8999C246.588 22.9755 246.617 23.0481 246.669 23.1016L247.655 24.1225C247.757 24.2268 247.921 24.229 248.026 24.1275C248.796 23.4128 249.799 23.0168 250.838 23.0164ZM252.815 25.2514C252.816 25.3271 252.787 25.4001 252.734 25.4531L251.028 27.217C250.978 27.2688 250.909 27.298 250.838 27.298C250.767 27.298 250.699 27.2688 250.649 27.217L248.942 25.4531C248.889 25.4 248.86 25.327 248.862 25.2513C248.863 25.1756 248.895 25.1039 248.95 25.0532C250.04 24.109 251.636 24.109 252.726 25.0532C252.781 25.104 252.813 25.1757 252.815 25.2514Z" fill="white"/>
<rect opacity="0.4" x="263.12" y="17.894" width="18.4242" height="9.21212" rx="2.68687" stroke="white" stroke-width="0.767677"/>
<path opacity="0.5" d="M282.696 20.9647V24.0354C283.315 23.7753 283.717 23.1703 283.717 22.5C283.717 21.8297 283.315 21.2247 282.696 20.9647" fill="white"/>
<rect x="264.271" y="19.0455" width="13.0505" height="6.90909" rx="1.53535" fill="white"/>
<path d="M83.458 77V64.652H92.278V66.38H85.474V70.034H91.63V71.744H85.474V77H83.458ZM94.2099 77V67.532H95.7579L95.9199 69.062H96.0279C96.1359 68.762 96.2739 68.48 96.4419 68.216C96.6219 67.952 96.8499 67.736 97.1259 67.568C97.4139 67.4 97.7619 67.316 98.1699 67.316C98.3619 67.316 98.5299 67.334 98.6739 67.37C98.8299 67.406 98.9499 67.436 99.0339 67.46V69.224H98.4039C98.0199 69.224 97.6779 69.284 97.3779 69.404C97.0899 69.524 96.8439 69.704 96.6399 69.944C96.4479 70.172 96.3039 70.454 96.2079 70.79C96.1239 71.126 96.0819 71.504 96.0819 71.924V77H94.2099ZM100.433 65.894V63.986H102.305V65.894H100.433ZM100.433 77V67.532H102.305V77H100.433ZM107.98 77.216C107.212 77.216 106.546 77.042 105.982 76.694C105.418 76.346 104.98 75.806 104.668 75.074C104.368 74.342 104.218 73.394 104.218 72.23C104.218 71.09 104.374 70.16 104.686 69.44C104.998 68.72 105.43 68.186 105.982 67.838C106.534 67.49 107.17 67.316 107.89 67.316C108.31 67.316 108.7 67.364 109.06 67.46C109.42 67.556 109.738 67.706 110.014 67.91C110.302 68.114 110.542 68.372 110.734 68.684H110.86V63.986H112.732V77H111.202L111.022 75.704H110.896C110.584 76.208 110.17 76.586 109.654 76.838C109.15 77.09 108.592 77.216 107.98 77.216ZM108.502 75.596C109.054 75.596 109.498 75.476 109.834 75.236C110.182 74.984 110.44 74.624 110.608 74.156C110.776 73.676 110.86 73.094 110.86 72.41V72.158C110.86 71.582 110.806 71.09 110.698 70.682C110.59 70.274 110.434 69.944 110.23 69.692C110.026 69.428 109.78 69.236 109.492 69.116C109.204 68.996 108.88 68.936 108.52 68.936C107.968 68.936 107.518 69.05 107.17 69.278C106.822 69.494 106.564 69.836 106.396 70.304C106.24 70.772 106.162 71.378 106.162 72.122V72.446C106.162 73.19 106.246 73.796 106.414 74.264C106.582 74.72 106.834 75.056 107.17 75.272C107.518 75.488 107.962 75.596 108.502 75.596ZM117.539 77.216C117.239 77.216 116.915 77.18 116.567 77.108C116.219 77.036 115.889 76.904 115.577 76.712C115.277 76.52 115.031 76.256 114.839 75.92C114.647 75.572 114.551 75.122 114.551 74.57C114.551 73.922 114.701 73.388 115.001 72.968C115.301 72.548 115.721 72.218 116.261 71.978C116.801 71.738 117.443 71.57 118.187 71.474C118.943 71.378 119.765 71.33 120.653 71.33V70.394C120.653 70.082 120.599 69.806 120.491 69.566C120.395 69.326 120.209 69.14 119.933 69.008C119.669 68.876 119.285 68.81 118.781 68.81C118.277 68.81 117.881 68.876 117.593 69.008C117.317 69.128 117.119 69.284 116.999 69.476C116.891 69.656 116.837 69.854 116.837 70.07V70.34H115.037C115.025 70.28 115.019 70.22 115.019 70.16C115.019 70.1 115.019 70.028 115.019 69.944C115.019 69.38 115.175 68.906 115.487 68.522C115.811 68.126 116.261 67.826 116.837 67.622C117.413 67.418 118.079 67.316 118.835 67.316C119.651 67.316 120.329 67.436 120.869 67.676C121.421 67.904 121.835 68.234 122.111 68.666C122.387 69.098 122.525 69.62 122.525 70.232V75.038C122.525 75.266 122.579 75.428 122.687 75.524C122.807 75.62 122.945 75.668 123.101 75.668H123.749V76.928C123.605 76.988 123.425 77.048 123.209 77.108C122.993 77.168 122.741 77.198 122.453 77.198C122.129 77.198 121.853 77.138 121.625 77.018C121.409 76.91 121.229 76.754 121.085 76.55C120.953 76.334 120.863 76.094 120.815 75.83H120.707C120.491 76.106 120.227 76.352 119.915 76.568C119.615 76.772 119.267 76.928 118.871 77.036C118.475 77.156 118.031 77.216 117.539 77.216ZM118.061 75.668C118.433 75.668 118.775 75.614 119.087 75.506C119.411 75.386 119.687 75.224 119.915 75.02C120.143 74.804 120.323 74.552 120.455 74.264C120.587 73.964 120.653 73.64 120.653 73.292V72.662C119.825 72.662 119.099 72.71 118.475 72.806C117.851 72.902 117.365 73.082 117.017 73.346C116.669 73.598 116.495 73.952 116.495 74.408C116.495 74.684 116.555 74.918 116.675 75.11C116.795 75.29 116.975 75.428 117.215 75.524C117.455 75.62 117.737 75.668 118.061 75.668ZM126.068 80.276C125.708 80.276 125.408 80.246 125.168 80.186C124.928 80.138 124.778 80.108 124.718 80.096V78.746H125.618C125.882 78.746 126.146 78.686 126.41 78.566C126.686 78.446 126.932 78.254 127.148 77.99C127.364 77.726 127.544 77.396 127.688 77L123.998 67.532H125.96L127.796 72.248C127.88 72.464 127.97 72.734 128.066 73.058C128.174 73.382 128.276 73.712 128.372 74.048C128.48 74.384 128.57 74.684 128.642 74.948H128.732C128.792 74.768 128.852 74.564 128.912 74.336C128.984 74.096 129.056 73.85 129.128 73.598C129.2 73.346 129.272 73.106 129.344 72.878C129.416 72.638 129.476 72.434 129.524 72.266L131.054 67.532H132.962L129.758 76.64C129.578 77.144 129.38 77.618 129.164 78.062C128.948 78.506 128.696 78.89 128.408 79.214C128.132 79.55 127.802 79.808 127.418 79.988C127.034 80.18 126.584 80.276 126.068 80.276ZM132.377 79.772V78.962C132.641 78.914 132.851 78.794 133.007 78.602C133.175 78.422 133.295 78.194 133.367 77.918C133.451 77.642 133.493 77.336 133.493 77H132.539V74.912H134.537V76.802C134.537 77.498 134.429 78.05 134.213 78.458C134.009 78.866 133.739 79.166 133.403 79.358C133.079 79.562 132.737 79.7 132.377 79.772ZM141.29 77V64.652H144.44L146.834 72.14C146.906 72.356 146.978 72.602 147.05 72.878C147.122 73.154 147.188 73.418 147.248 73.67C147.32 73.922 147.374 74.144 147.41 74.336H147.554C147.578 74.156 147.62 73.94 147.68 73.688C147.74 73.436 147.8 73.172 147.86 72.896C147.932 72.62 148.004 72.362 148.076 72.122L150.488 64.652H153.584V77H151.586V70.232C151.586 69.776 151.592 69.302 151.604 68.81C151.616 68.318 151.628 67.88 151.64 67.496C151.652 67.112 151.658 66.866 151.658 66.758H151.514C151.49 66.89 151.43 67.118 151.334 67.442C151.25 67.754 151.16 68.09 151.064 68.45C150.968 68.81 150.878 69.122 150.794 69.386L148.292 77H146.51L144.008 69.404C143.936 69.176 143.858 68.906 143.774 68.594C143.69 68.282 143.606 67.964 143.522 67.64C143.438 67.316 143.366 67.022 143.306 66.758H143.162C143.174 67.046 143.18 67.4 143.18 67.82C143.192 68.24 143.204 68.666 143.216 69.098C143.228 69.518 143.234 69.896 143.234 70.232V77H141.29ZM158.655 77.216C158.355 77.216 158.031 77.18 157.683 77.108C157.335 77.036 157.005 76.904 156.693 76.712C156.393 76.52 156.147 76.256 155.955 75.92C155.763 75.572 155.667 75.122 155.667 74.57C155.667 73.922 155.817 73.388 156.117 72.968C156.417 72.548 156.837 72.218 157.377 71.978C157.917 71.738 158.559 71.57 159.303 71.474C160.059 71.378 160.881 71.33 161.769 71.33V70.394C161.769 70.082 161.715 69.806 161.607 69.566C161.511 69.326 161.325 69.14 161.049 69.008C160.785 68.876 160.401 68.81 159.897 68.81C159.393 68.81 158.997 68.876 158.709 69.008C158.433 69.128 158.235 69.284 158.115 69.476C158.007 69.656 157.953 69.854 157.953 70.07V70.34H156.153C156.141 70.28 156.135 70.22 156.135 70.16C156.135 70.1 156.135 70.028 156.135 69.944C156.135 69.38 156.291 68.906 156.603 68.522C156.927 68.126 157.377 67.826 157.953 67.622C158.529 67.418 159.195 67.316 159.951 67.316C160.767 67.316 161.445 67.436 161.985 67.676C162.537 67.904 162.951 68.234 163.227 68.666C163.503 69.098 163.641 69.62 163.641 70.232V75.038C163.641 75.266 163.695 75.428 163.803 75.524C163.923 75.62 164.061 75.668 164.217 75.668H164.865V76.928C164.721 76.988 164.541 77.048 164.325 77.108C164.109 77.168 163.857 77.198 163.569 77.198C163.245 77.198 162.969 77.138 162.741 77.018C162.525 76.91 162.345 76.754 162.201 76.55C162.069 76.334 161.979 76.094 161.931 75.83H161.823C161.607 76.106 161.343 76.352 161.031 76.568C160.731 76.772 160.383 76.928 159.987 77.036C159.591 77.156 159.147 77.216 158.655 77.216ZM159.177 75.668C159.549 75.668 159.891 75.614 160.203 75.506C160.527 75.386 160.803 75.224 161.031 75.02C161.259 74.804 161.439 74.552 161.571 74.264C161.703 73.964 161.769 73.64 161.769 73.292V72.662C160.941 72.662 160.215 72.71 159.591 72.806C158.967 72.902 158.481 73.082 158.133 73.346C157.785 73.598 157.611 73.952 157.611 74.408C157.611 74.684 157.671 74.918 157.791 75.11C157.911 75.29 158.091 75.428 158.331 75.524C158.571 75.62 158.853 75.668 159.177 75.668ZM166.157 77V67.532H167.705L167.867 69.062H167.975C168.083 68.762 168.221 68.48 168.389 68.216C168.569 67.952 168.797 67.736 169.073 67.568C169.361 67.4 169.709 67.316 170.117 67.316C170.309 67.316 170.477 67.334 170.621 67.37C170.777 67.406 170.897 67.436 170.981 67.46V69.224H170.351C169.967 69.224 169.625 69.284 169.325 69.404C169.037 69.524 168.791 69.704 168.587 69.944C168.395 70.172 168.251 70.454 168.155 70.79C168.071 71.126 168.029 71.504 168.029 71.924V77H166.157ZM175.966 77.216C175.018 77.216 174.226 77.042 173.59 76.694C172.954 76.334 172.474 75.788 172.15 75.056C171.838 74.324 171.682 73.394 171.682 72.266C171.682 71.138 171.844 70.214 172.168 69.494C172.492 68.762 172.972 68.216 173.608 67.856C174.256 67.496 175.048 67.316 175.984 67.316C176.632 67.316 177.196 67.4 177.676 67.568C178.156 67.724 178.564 67.964 178.9 68.288C179.236 68.6 179.482 68.99 179.638 69.458C179.806 69.926 179.89 70.46 179.89 71.06H178C178 70.556 177.928 70.142 177.784 69.818C177.64 69.494 177.418 69.254 177.118 69.098C176.818 68.93 176.428 68.846 175.948 68.846C175.444 68.846 175.018 68.966 174.67 69.206C174.322 69.434 174.058 69.788 173.878 70.268C173.698 70.736 173.608 71.354 173.608 72.122V72.428C173.608 73.16 173.692 73.772 173.86 74.264C174.04 74.744 174.304 75.104 174.652 75.344C175.012 75.572 175.468 75.686 176.02 75.686C176.5 75.686 176.884 75.602 177.172 75.434C177.472 75.254 177.694 75.002 177.838 74.678C177.994 74.342 178.072 73.94 178.072 73.472H179.89C179.89 74.036 179.806 74.546 179.638 75.002C179.482 75.458 179.236 75.854 178.9 76.19C178.576 76.514 178.168 76.766 177.676 76.946C177.184 77.126 176.614 77.216 175.966 77.216ZM181.784 77V63.986H183.656V68.666H183.782C184.01 68.378 184.268 68.138 184.556 67.946C184.844 67.742 185.168 67.586 185.528 67.478C185.888 67.37 186.284 67.316 186.716 67.316C187.316 67.316 187.844 67.424 188.3 67.64C188.756 67.844 189.11 68.18 189.362 68.648C189.626 69.116 189.758 69.746 189.758 70.538V77H187.886V70.826C187.886 70.466 187.838 70.166 187.742 69.926C187.658 69.686 187.532 69.494 187.364 69.35C187.196 69.206 186.998 69.104 186.77 69.044C186.542 68.984 186.29 68.954 186.014 68.954C185.582 68.954 185.186 69.056 184.826 69.26C184.478 69.464 184.196 69.752 183.98 70.124C183.764 70.496 183.656 70.94 183.656 71.456V77H181.784ZM196.046 77V75.434H199.106V67.244H196.046V66.074C196.442 66.05 196.88 65.978 197.36 65.858C197.84 65.738 198.32 65.576 198.8 65.372C199.28 65.168 199.718 64.922 200.114 64.634H200.996V75.434H203.822V77H196.046ZM209.598 77.216C208.938 77.216 208.338 77.12 207.798 76.928C207.27 76.724 206.82 76.382 206.448 75.902C206.088 75.422 205.806 74.774 205.602 73.958C205.41 73.13 205.314 72.086 205.314 70.826C205.314 69.566 205.41 68.528 205.602 67.712C205.806 66.884 206.088 66.23 206.448 65.75C206.82 65.27 207.27 64.934 207.798 64.742C208.338 64.538 208.938 64.436 209.598 64.436C210.27 64.436 210.87 64.538 211.398 64.742C211.926 64.934 212.37 65.27 212.73 65.75C213.102 66.23 213.384 66.884 213.576 67.712C213.78 68.528 213.882 69.566 213.882 70.826C213.882 72.086 213.78 73.13 213.576 73.958C213.384 74.774 213.102 75.422 212.73 75.902C212.37 76.382 211.926 76.724 211.398 76.928C210.87 77.12 210.27 77.216 209.598 77.216ZM209.598 75.668C210.234 75.668 210.714 75.506 211.038 75.182C211.374 74.846 211.608 74.354 211.74 73.706C211.872 73.058 211.938 72.254 211.938 71.294V70.412C211.938 69.428 211.872 68.612 211.74 67.964C211.608 67.304 211.374 66.812 211.038 66.488C210.714 66.152 210.234 65.984 209.598 65.984C208.974 65.984 208.494 66.152 208.158 66.488C207.822 66.812 207.588 67.298 207.456 67.946C207.324 68.594 207.258 69.404 207.258 70.376V71.258C207.258 72.218 207.324 73.028 207.456 73.688C207.588 74.348 207.822 74.846 208.158 75.182C208.494 75.506 208.974 75.668 209.598 75.668Z" fill="#CBCBCE"/>
<path d="M92.03 612.216C91.358 612.216 90.71 612.144 90.086 612C89.462 611.868 88.91 611.652 88.43 611.352C87.95 611.04 87.572 610.65 87.296 610.182C87.02 609.702 86.882 609.132 86.882 608.472C86.882 608.4 86.882 608.334 86.882 608.274C86.894 608.202 86.9 608.142 86.9 608.094H88.916C88.916 608.13 88.91 608.184 88.898 608.256C88.898 608.328 88.898 608.388 88.898 608.436C88.898 608.88 89.03 609.258 89.294 609.57C89.558 609.882 89.924 610.116 90.392 610.272C90.872 610.428 91.418 610.506 92.03 610.506C92.366 610.506 92.69 610.488 93.002 610.452C93.314 610.404 93.596 610.338 93.848 610.254C94.112 610.158 94.34 610.044 94.532 609.912C94.724 609.768 94.874 609.6 94.982 609.408C95.09 609.216 95.144 608.994 95.144 608.742C95.144 608.358 95.03 608.04 94.802 607.788C94.586 607.536 94.286 607.326 93.902 607.158C93.53 606.99 93.104 606.84 92.624 606.708C92.156 606.576 91.67 606.444 91.166 606.312C90.662 606.18 90.17 606.024 89.69 605.844C89.222 605.664 88.796 605.448 88.412 605.196C88.04 604.932 87.74 604.608 87.512 604.224C87.296 603.828 87.188 603.348 87.188 602.784C87.188 602.244 87.302 601.764 87.53 601.344C87.758 600.924 88.088 600.576 88.52 600.3C88.952 600.012 89.468 599.796 90.068 599.652C90.668 599.508 91.346 599.436 92.102 599.436C92.75 599.436 93.362 599.508 93.938 599.652C94.514 599.784 95.018 599.994 95.45 600.282C95.882 600.57 96.218 600.936 96.458 601.38C96.71 601.824 96.836 602.352 96.836 602.964V603.18H94.838V602.946C94.838 602.562 94.724 602.238 94.496 601.974C94.268 601.71 93.95 601.506 93.542 601.362C93.134 601.218 92.66 601.146 92.12 601.146C91.484 601.146 90.95 601.212 90.518 601.344C90.086 601.464 89.756 601.638 89.528 601.866C89.312 602.082 89.204 602.346 89.204 602.658C89.204 603.006 89.318 603.294 89.546 603.522C89.774 603.738 90.074 603.924 90.446 604.08C90.83 604.236 91.256 604.38 91.724 604.512C92.204 604.632 92.69 604.764 93.182 604.908C93.686 605.04 94.172 605.196 94.64 605.376C95.12 605.556 95.546 605.778 95.918 606.042C96.302 606.306 96.608 606.636 96.836 607.032C97.064 607.416 97.178 607.89 97.178 608.454C97.178 609.342 96.956 610.068 96.512 610.632C96.068 611.184 95.456 611.586 94.676 611.838C93.908 612.09 93.026 612.216 92.03 612.216ZM103.027 612.216C102.079 612.216 101.287 612.042 100.651 611.694C100.015 611.334 99.5346 610.788 99.2106 610.056C98.8986 609.324 98.7426 608.394 98.7426 607.266C98.7426 606.138 98.9046 605.214 99.2286 604.494C99.5526 603.762 100.033 603.216 100.669 602.856C101.317 602.496 102.109 602.316 103.045 602.316C103.693 602.316 104.257 602.4 104.737 602.568C105.217 602.724 105.625 602.964 105.961 603.288C106.297 603.6 106.543 603.99 106.699 604.458C106.867 604.926 106.951 605.46 106.951 606.06H105.061C105.061 605.556 104.989 605.142 104.845 604.818C104.701 604.494 104.479 604.254 104.179 604.098C103.879 603.93 103.489 603.846 103.009 603.846C102.505 603.846 102.079 603.966 101.731 604.206C101.383 604.434 101.119 604.788 100.939 605.268C100.759 605.736 100.669 606.354 100.669 607.122V607.428C100.669 608.16 100.753 608.772 100.921 609.264C101.101 609.744 101.365 610.104 101.713 610.344C102.073 610.572 102.529 610.686 103.081 610.686C103.561 610.686 103.945 610.602 104.233 610.434C104.533 610.254 104.755 610.002 104.899 609.678C105.055 609.342 105.133 608.94 105.133 608.472H106.951C106.951 609.036 106.867 609.546 106.699 610.002C106.543 610.458 106.297 610.854 105.961 611.19C105.637 611.514 105.229 611.766 104.737 611.946C104.245 612.126 103.675 612.216 103.027 612.216ZM108.845 612V602.532H110.393L110.555 604.062H110.663C110.771 603.762 110.909 603.48 111.077 603.216C111.257 602.952 111.485 602.736 111.761 602.568C112.049 602.4 112.397 602.316 112.805 602.316C112.997 602.316 113.165 602.334 113.309 602.37C113.465 602.406 113.585 602.436 113.669 602.46V604.224H113.039C112.655 604.224 112.313 604.284 112.013 604.404C111.725 604.524 111.479 604.704 111.275 604.944C111.083 605.172 110.939 605.454 110.843 605.79C110.759 606.126 110.717 606.504 110.717 606.924V612H108.845ZM118.924 612.216C117.94 612.216 117.106 612.042 116.422 611.694C115.75 611.334 115.24 610.788 114.892 610.056C114.556 609.324 114.388 608.394 114.388 607.266C114.388 606.126 114.556 605.196 114.892 604.476C115.24 603.744 115.75 603.204 116.422 602.856C117.106 602.496 117.94 602.316 118.924 602.316C119.932 602.316 120.772 602.496 121.444 602.856C122.116 603.204 122.62 603.744 122.956 604.476C123.304 605.196 123.478 606.126 123.478 607.266C123.478 608.394 123.304 609.324 122.956 610.056C122.62 610.788 122.116 611.334 121.444 611.694C120.772 612.042 119.932 612.216 118.924 612.216ZM118.924 610.668C119.524 610.668 120.016 610.554 120.4 610.326C120.784 610.086 121.066 609.726 121.246 609.246C121.438 608.766 121.534 608.16 121.534 607.428V607.104C121.534 606.372 121.438 605.766 121.246 605.286C121.066 604.806 120.784 604.452 120.4 604.224C120.016 603.984 119.524 603.864 118.924 603.864C118.336 603.864 117.85 603.984 117.466 604.224C117.082 604.452 116.794 604.806 116.602 605.286C116.422 605.766 116.332 606.372 116.332 607.104V607.428C116.332 608.16 116.422 608.766 116.602 609.246C116.794 609.726 117.082 610.086 117.466 610.326C117.85 610.554 118.336 610.668 118.924 610.668ZM125.386 612V598.986H127.258V612H125.386ZM129.675 612V598.986H131.547V612H129.675ZM140.013 612.216C139.473 612.216 139.047 612.114 138.735 611.91C138.435 611.694 138.219 611.424 138.087 611.1C137.967 610.764 137.907 610.41 137.907 610.038V604.08H136.719V602.532H137.943L138.285 599.886H139.779V602.532H141.489V604.08H139.779V609.822C139.779 610.098 139.839 610.308 139.959 610.452C140.079 610.596 140.277 610.668 140.553 610.668H141.489V611.928C141.369 611.976 141.219 612.018 141.039 612.054C140.871 612.102 140.697 612.138 140.517 612.162C140.337 612.198 140.169 612.216 140.013 612.216ZM147.172 612.216C146.188 612.216 145.354 612.042 144.67 611.694C143.998 611.334 143.488 610.788 143.14 610.056C142.804 609.324 142.636 608.394 142.636 607.266C142.636 606.126 142.804 605.196 143.14 604.476C143.488 603.744 143.998 603.204 144.67 602.856C145.354 602.496 146.188 602.316 147.172 602.316C148.18 602.316 149.02 602.496 149.692 602.856C150.364 603.204 150.868 603.744 151.204 604.476C151.552 605.196 151.726 606.126 151.726 607.266C151.726 608.394 151.552 609.324 151.204 610.056C150.868 610.788 150.364 611.334 149.692 611.694C149.02 612.042 148.18 612.216 147.172 612.216ZM147.172 610.668C147.772 610.668 148.264 610.554 148.648 610.326C149.032 610.086 149.314 609.726 149.494 609.246C149.686 608.766 149.782 608.16 149.782 607.428V607.104C149.782 606.372 149.686 605.766 149.494 605.286C149.314 604.806 149.032 604.452 148.648 604.224C148.264 603.984 147.772 603.864 147.172 603.864C146.584 603.864 146.098 603.984 145.714 604.224C145.33 604.452 145.042 604.806 144.85 605.286C144.67 605.766 144.58 606.372 144.58 607.104V607.428C144.58 608.16 144.67 608.766 144.85 609.246C145.042 609.726 145.33 610.086 145.714 610.326C146.098 610.554 146.584 610.668 147.172 610.668ZM160.295 612.216C159.383 612.216 158.645 611.976 158.081 611.496C157.517 611.004 157.235 610.17 157.235 608.994V602.532H159.107V608.706C159.107 609.066 159.149 609.366 159.233 609.606C159.329 609.846 159.461 610.038 159.629 610.182C159.797 610.326 159.995 610.428 160.223 610.488C160.451 610.548 160.703 610.578 160.979 610.578C161.411 610.578 161.801 610.476 162.149 610.272C162.509 610.056 162.797 609.762 163.013 609.39C163.229 609.006 163.337 608.568 163.337 608.076V602.532H165.209V612H163.679L163.517 610.65H163.391C163.163 610.998 162.893 611.286 162.581 611.514C162.269 611.742 161.921 611.916 161.537 612.036C161.165 612.156 160.751 612.216 160.295 612.216ZM167.626 612V602.532H169.174L169.336 603.882H169.462C169.69 603.534 169.96 603.246 170.272 603.018C170.584 602.79 170.926 602.616 171.298 602.496C171.682 602.376 172.102 602.316 172.558 602.316C173.158 602.316 173.686 602.424 174.142 602.64C174.598 602.844 174.952 603.18 175.204 603.648C175.468 604.116 175.6 604.746 175.6 605.538V612H173.728V605.826C173.728 605.466 173.68 605.166 173.584 604.926C173.5 604.686 173.374 604.494 173.206 604.35C173.038 604.206 172.84 604.104 172.612 604.044C172.384 603.984 172.132 603.954 171.856 603.954C171.424 603.954 171.028 604.062 170.668 604.278C170.32 604.482 170.038 604.77 169.822 605.142C169.606 605.514 169.498 605.952 169.498 606.456V612H167.626ZM177.944 612V598.986H179.816V612H177.944ZM186.265 612.216C185.281 612.216 184.447 612.042 183.763 611.694C183.091 611.334 182.581 610.788 182.233 610.056C181.897 609.324 181.729 608.394 181.729 607.266C181.729 606.126 181.897 605.196 182.233 604.476C182.581 603.744 183.091 603.204 183.763 602.856C184.447 602.496 185.281 602.316 186.265 602.316C187.273 602.316 188.113 602.496 188.785 602.856C189.457 603.204 189.961 603.744 190.297 604.476C190.645 605.196 190.819 606.126 190.819 607.266C190.819 608.394 190.645 609.324 190.297 610.056C189.961 610.788 189.457 611.334 188.785 611.694C188.113 612.042 187.273 612.216 186.265 612.216ZM186.265 610.668C186.865 610.668 187.357 610.554 187.741 610.326C188.125 610.086 188.407 609.726 188.587 609.246C188.779 608.766 188.875 608.16 188.875 607.428V607.104C188.875 606.372 188.779 605.766 188.587 605.286C188.407 604.806 188.125 604.452 187.741 604.224C187.357 603.984 186.865 603.864 186.265 603.864C185.677 603.864 185.191 603.984 184.807 604.224C184.423 604.452 184.135 604.806 183.943 605.286C183.763 605.766 183.673 606.372 183.673 607.104V607.428C183.673 608.16 183.763 608.766 183.943 609.246C184.135 609.726 184.423 610.086 184.807 610.326C185.191 610.554 185.677 610.668 186.265 610.668ZM196.489 612.216C195.541 612.216 194.749 612.042 194.113 611.694C193.477 611.334 192.997 610.788 192.673 610.056C192.361 609.324 192.205 608.394 192.205 607.266C192.205 606.138 192.367 605.214 192.691 604.494C193.015 603.762 193.495 603.216 194.131 602.856C194.779 602.496 195.571 602.316 196.507 602.316C197.155 602.316 197.719 602.4 198.199 602.568C198.679 602.724 199.087 602.964 199.423 603.288C199.759 603.6 200.005 603.99 200.161 604.458C200.329 604.926 200.413 605.46 200.413 606.06H198.523C198.523 605.556 198.451 605.142 198.307 604.818C198.163 604.494 197.941 604.254 197.641 604.098C197.341 603.93 196.951 603.846 196.471 603.846C195.967 603.846 195.541 603.966 195.193 604.206C194.845 604.434 194.581 604.788 194.401 605.268C194.221 605.736 194.131 606.354 194.131 607.122V607.428C194.131 608.16 194.215 608.772 194.383 609.264C194.563 609.744 194.827 610.104 195.175 610.344C195.535 610.572 195.991 610.686 196.543 610.686C197.023 610.686 197.407 610.602 197.695 610.434C197.995 610.254 198.217 610.002 198.361 609.678C198.517 609.342 198.595 608.94 198.595 608.472H200.413C200.413 609.036 200.329 609.546 200.161 610.002C200.005 610.458 199.759 610.854 199.423 611.19C199.099 611.514 198.691 611.766 198.199 611.946C197.707 612.126 197.137 612.216 196.489 612.216ZM202.308 612V598.986H204.18V606.852L207.906 602.532H210.12L206.916 606.204L210.3 612H208.14L205.71 607.572L204.18 609.084V612H202.308Z" fill="#CBCBCE"/>
<path d="M92.0199 100.273V141H83.4091V108.446H83.1705L73.8438 114.293V106.656L83.9261 100.273H92.0199ZM117.33 141.557C115.236 141.544 113.214 141.192 111.265 140.503C109.329 139.813 107.593 138.693 106.055 137.142C104.517 135.591 103.297 133.536 102.396 130.977C101.507 128.419 101.063 125.277 101.063 121.551C101.076 118.131 101.468 115.075 102.237 112.384C103.019 109.679 104.132 107.385 105.577 105.503C107.036 103.62 108.779 102.188 110.808 101.207C112.836 100.213 115.11 99.7159 117.629 99.7159C120.346 99.7159 122.746 100.246 124.827 101.307C126.909 102.354 128.579 103.779 129.839 105.582C131.112 107.385 131.88 109.407 132.146 111.648H123.654C123.323 110.229 122.627 109.116 121.566 108.307C120.505 107.498 119.193 107.094 117.629 107.094C114.977 107.094 112.962 108.247 111.583 110.554C110.218 112.861 109.522 115.996 109.495 119.96H109.773C110.383 118.754 111.205 117.726 112.239 116.878C113.287 116.016 114.473 115.36 115.799 114.909C117.138 114.445 118.55 114.213 120.035 114.213C122.448 114.213 124.595 114.783 126.478 115.923C128.361 117.05 129.845 118.601 130.933 120.577C132.02 122.552 132.563 124.812 132.563 127.358C132.563 130.116 131.92 132.568 130.634 134.716C129.362 136.864 127.578 138.547 125.285 139.767C123.004 140.973 120.353 141.57 117.33 141.557ZM117.29 134.795C118.616 134.795 119.803 134.477 120.85 133.841C121.897 133.205 122.719 132.343 123.316 131.256C123.913 130.169 124.211 128.949 124.211 127.597C124.211 126.244 123.913 125.031 123.316 123.957C122.733 122.884 121.924 122.028 120.89 121.392C119.856 120.756 118.676 120.438 117.35 120.438C116.356 120.438 115.434 120.623 114.586 120.994C113.751 121.366 113.015 121.883 112.379 122.545C111.755 123.208 111.265 123.977 110.907 124.852C110.549 125.714 110.37 126.635 110.37 127.616C110.37 128.929 110.668 130.129 111.265 131.216C111.875 132.303 112.697 133.171 113.731 133.821C114.778 134.471 115.965 134.795 117.29 134.795ZM143.7 136.267C142.387 136.267 141.26 135.803 140.319 134.875C139.391 133.947 138.927 132.82 138.927 131.494C138.927 130.195 139.391 129.081 140.319 128.153C141.26 127.225 142.387 126.761 143.7 126.761C144.972 126.761 146.086 127.225 147.04 128.153C147.995 129.081 148.472 130.195 148.472 131.494C148.472 132.369 148.247 133.171 147.796 133.901C147.359 134.616 146.782 135.193 146.066 135.631C145.35 136.055 144.561 136.267 143.7 136.267ZM143.7 116.281C142.387 116.281 141.26 115.817 140.319 114.889C139.391 113.961 138.927 112.834 138.927 111.509C138.927 110.209 139.391 109.102 140.319 108.188C141.26 107.259 142.387 106.795 143.7 106.795C144.972 106.795 146.086 107.259 147.04 108.188C147.995 109.102 148.472 110.209 148.472 111.509C148.472 112.397 148.247 113.205 147.796 113.935C147.359 114.651 146.782 115.221 146.066 115.645C145.35 116.069 144.561 116.281 143.7 116.281ZM170.402 141.557C167.432 141.557 164.787 141.046 162.467 140.026C160.161 138.991 158.338 137.573 156.999 135.77C155.673 133.954 154.99 131.859 154.95 129.486H163.621C163.674 130.48 163.999 131.355 164.595 132.111C165.205 132.853 166.014 133.43 167.021 133.841C168.029 134.252 169.162 134.457 170.422 134.457C171.734 134.457 172.894 134.225 173.902 133.761C174.91 133.297 175.698 132.654 176.268 131.832C176.839 131.01 177.124 130.062 177.124 128.989C177.124 127.902 176.819 126.94 176.209 126.105C175.612 125.257 174.75 124.594 173.624 124.116C172.51 123.639 171.184 123.401 169.646 123.401H165.848V117.077H169.646C170.946 117.077 172.092 116.851 173.087 116.401C174.094 115.95 174.876 115.327 175.433 114.531C175.99 113.723 176.268 112.781 176.268 111.707C176.268 110.687 176.023 109.792 175.533 109.023C175.055 108.241 174.379 107.631 173.504 107.193C172.643 106.756 171.635 106.537 170.482 106.537C169.315 106.537 168.248 106.749 167.28 107.173C166.312 107.584 165.536 108.174 164.953 108.943C164.37 109.712 164.058 110.614 164.018 111.648H155.766C155.805 109.301 156.475 107.233 157.774 105.443C159.073 103.653 160.823 102.255 163.024 101.247C165.238 100.226 167.737 99.7159 170.521 99.7159C173.332 99.7159 175.791 100.226 177.899 101.247C180.007 102.268 181.644 103.647 182.811 105.384C183.991 107.107 184.574 109.043 184.561 111.19C184.574 113.471 183.865 115.373 182.433 116.898C181.015 118.422 179.165 119.39 176.885 119.801V120.119C179.881 120.504 182.161 121.545 183.726 123.241C185.304 124.925 186.086 127.033 186.072 129.565C186.086 131.885 185.416 133.947 184.064 135.75C182.725 137.553 180.875 138.972 178.516 140.006C176.156 141.04 173.451 141.557 170.402 141.557ZM207.316 141.557C204.346 141.557 201.701 141.046 199.381 140.026C197.075 138.991 195.252 137.573 193.913 135.77C192.587 133.954 191.904 131.859 191.864 129.486H200.535C200.588 130.48 200.913 131.355 201.509 132.111C202.119 132.853 202.928 133.43 203.935 133.841C204.943 134.252 206.076 134.457 207.336 134.457C208.648 134.457 209.808 134.225 210.816 133.761C211.824 133.297 212.612 132.654 213.183 131.832C213.753 131.01 214.038 130.062 214.038 128.989C214.038 127.902 213.733 126.94 213.123 126.105C212.526 125.257 211.665 124.594 210.538 124.116C209.424 123.639 208.098 123.401 206.56 123.401H202.762V117.077H206.56C207.86 117.077 209.006 116.851 210.001 116.401C211.008 115.95 211.79 115.327 212.347 114.531C212.904 113.723 213.183 112.781 213.183 111.707C213.183 110.687 212.937 109.792 212.447 109.023C211.969 108.241 211.293 107.631 210.418 107.193C209.557 106.756 208.549 106.537 207.396 106.537C206.229 106.537 205.162 106.749 204.194 107.173C203.226 107.584 202.451 108.174 201.867 108.943C201.284 109.712 200.972 110.614 200.933 111.648H192.68C192.719 109.301 193.389 107.233 194.688 105.443C195.987 103.653 197.737 102.255 199.938 101.247C202.152 100.226 204.651 99.7159 207.435 99.7159C210.246 99.7159 212.705 100.226 214.813 101.247C216.921 102.268 218.558 103.647 219.725 105.384C220.905 107.107 221.488 109.043 221.475 111.19C221.488 113.471 220.779 115.373 219.347 116.898C217.929 118.422 216.079 119.39 213.799 119.801V120.119C216.795 120.504 219.076 121.545 220.64 123.241C222.218 124.925 223 127.033 222.987 129.565C223 131.885 222.33 133.947 220.978 135.75C219.639 137.553 217.79 138.972 215.43 140.006C213.07 141.04 210.365 141.557 207.316 141.557Z" fill="#EFEFF1"/>
</svg>
