<svg width="48" height="48" viewBox="0 0 48 48" fill="none" xmlns="http://www.w3.org/2000/svg">
<rect x="4" y="3" width="41" height="42" fill="#EFEFF1"/>
<path fill-rule="evenodd" clip-rule="evenodd" d="M24.019 17.3335C24.5307 17.3386 25.0189 17.5494 25.3734 17.9185L34.7068 27.6328C35.4356 28.3913 35.4115 29.5971 34.6529 30.326C33.8943 31.0548 32.6885 31.0307 31.9597 30.2721L23.9727 21.9591L15.6325 30.2993C14.8886 31.0431 13.6826 31.0431 12.9388 30.2993C12.1949 29.5554 12.1949 28.3494 12.9388 27.6056L22.653 17.8913C23.0149 17.5294 23.5072 17.3284 24.019 17.3335Z" fill="#262626"/>
<path fill-rule="evenodd" clip-rule="evenodd" d="M7.04748 0.571411H40.9522C44.5289 0.571411 47.4284 3.4709 47.4284 7.0476V40.9524C47.4284 44.5291 44.5289 47.4286 40.9522 47.4286H7.04748C3.47078 47.4286 0.571289 44.5291 0.571289 40.9524V7.0476C0.571289 3.4709 3.47078 0.571411 7.04748 0.571411ZM7.04748 3.99998C5.36433 3.99998 3.99986 5.36445 3.99986 7.0476V40.9524C3.99986 42.6355 5.36433 44 7.04748 44H40.9522C42.6354 44 43.9999 42.6355 43.9999 40.9524V7.0476C43.9999 5.36445 42.6354 3.99998 40.9522 3.99998H7.04748Z" fill="#262626"/>
</svg>
